<?xml version="1.0" encoding="utf-8"?>
<!-- Generator: Adobe Illustrator 24.1.1, SVG Export Plug-In . SVG Version: 6.00 Build 0)  -->
<svg version="1.1" id="Layer_1" xmlns="http://www.w3.org/2000/svg" xmlns:xlink="http://www.w3.org/1999/xlink" x="0px" y="0px"
	 viewBox="0 0 187.2 72.1" style="enable-background:new 0 0 187.2 72.1;" xml:space="preserve">
<style type="text/css">
	.st0{fill-rule:evenodd;clip-rule:evenodd;}
	.st1{fill:#FFFFFF;}
	.st2{fill-opacity:0;stroke:#000000;stroke-width:1.1339;stroke-linecap:round;stroke-linejoin:round;stroke-miterlimit:10;}
	.st3{fill-opacity:0;stroke:#000000;stroke-width:0.1417;stroke-linecap:round;stroke-linejoin:round;stroke-miterlimit:10;}
</style>
<desc>Picture generated by PCBNEW</desc>
<g transform="translate(0 0) scale(1 1)">
</g>
<g>
	<g>
		<path class="st0" d="M16.6,56.2h-4.3v-4.3h4.3V56.2z"/>
		<circle cx="7.2" cy="54.1" r="2.2"/>
	</g>
	<g>
		<circle cx="14.4" cy="46.9" r="2.2"/>
	</g>
	<g>
		<circle cx="7.2" cy="46.9" r="2.2"/>
	</g>
	<g>
		<circle cx="14.4" cy="39.7" r="2.2"/>
	</g>
	<g>
		<circle cx="7.2" cy="39.7" r="2.2"/>
	</g>
</g>
<g>
	<circle class="st1" cx="14.4" cy="54.1" r="1.4"/>
</g>
<g>
	<circle class="st1" cx="7.2" cy="54.1" r="1.4"/>
</g>
<g>
	<circle class="st1" cx="14.4" cy="46.9" r="1.4"/>
</g>
<g>
	<circle class="st1" cx="7.2" cy="46.9" r="1.4"/>
</g>
<g>
	<circle class="st1" cx="14.4" cy="39.7" r="1.4"/>
</g>
<g>
	<circle class="st1" cx="7.2" cy="39.7" r="1.4"/>
</g>
<g>
	<g>
		<path class="st0" d="M16.6,56.2h-4.3v-4.3h4.3V56.2z"/>
		<circle cx="7.2" cy="54.1" r="2.2"/>
	</g>
	<g>
		<circle cx="14.4" cy="46.9" r="2.2"/>
	</g>
	<g>
		<circle cx="7.2" cy="46.9" r="2.2"/>
	</g>
	<g>
		<circle cx="14.4" cy="39.7" r="2.2"/>
	</g>
	<g>
		<circle cx="7.2" cy="39.7" r="2.2"/>
	</g>
	<g>
		<path class="st0" d="M109.1,33.8h5.1v4.5h-5.1V33.8z"/>
		<path class="st0" d="M109.1,41.7h5.1v4.5h-5.1V41.7z"/>
	</g>
	<g>
		<path class="st0" d="M176.4,30.7v-3.6h7.2v3.6H176.4z"/>
		<path class="st0" d="M176.4,37.9v-3.6h7.2v3.6H176.4z"/>
		<path class="st0" d="M176.4,45.1v-3.6h7.2v3.6H176.4z"/>
		<path class="st0" d="M176.4,52.3v-3.6h7.2v3.6H176.4z"/>
		<path class="st0" d="M176.4,59.5v-3.6h7.2v3.6H176.4z"/>
		<path class="st0" d="M176.4,66.7v-3.6h7.2v3.6H176.4z"/>
	</g>
	<g>
		<path class="st0" d="M59.4,8.2v5.4h-3.6V8.2H59.4z"/>
		<path class="st0" d="M50,8.2v5.4h-3.6V8.2H50z"/>
	</g>
	<g>
		<path class="st0" d="M28.4,8.2v5.4h-3.6V8.2H28.4z"/>
		<path class="st0" d="M37.8,8.2v5.4h-3.6V8.2H37.8z"/>
	</g>
	<g>
		<path class="st0" d="M81.7,34.8v6.2h-1.4v-6.2H81.7z"/>
		<path class="st0" d="M78.1,34.8v6.2h-1.4v-6.2H78.1z"/>
		<path class="st0" d="M74.5,34.8v6.2h-1.4v-6.2H74.5z"/>
		<path class="st0" d="M70.9,34.8v6.2h-1.4v-6.2H70.9z"/>
		<path class="st0" d="M70.9,52.7v6.2h-1.4v-6.2H70.9z"/>
		<path class="st0" d="M74.5,52.7v6.2h-1.4v-6.2H74.5z"/>
		<path class="st0" d="M78.1,52.7v6.2h-1.4v-6.2H78.1z"/>
		<path class="st0" d="M81.7,52.7v6.2h-1.4v-6.2H81.7z"/>
	</g>
	<g>
		<path class="st0" d="M94.7,33.8h5.1v4.5h-5.1V33.8z"/>
		<path class="st0" d="M94.7,41.9h5.1v4.5h-5.1V41.9z"/>
	</g>
	<g>
		<path class="st0" d="M149,51.5v5.1h-4.5v-5.1H149z"/>
		<path class="st0" d="M157.1,51.5v5.1h-4.5v-5.1H157.1z"/>
	</g>
	<g>
		<path class="st0" d="M16.7,8.3v5.1h-4.5V8.3H16.7z"/>
		<path class="st0" d="M8.6,8.3v5.1H4.1V8.3H8.6z"/>
	</g>
	<g>
		<path class="st0" d="M75.2,13.8V9.4h6.5v4.3H75.2z"/>
		<path class="st0" d="M94,13.8V9.4h6.5v4.3H94z"/>
		<path class="st0" d="M75.2,26.7v-4.3h6.5v4.3H75.2z"/>
		<path class="st0" d="M94,26.7v-4.3h6.5v4.3H94z"/>
	</g>
	<g>
		<path class="st2" d="M6.4,10.9V3.6"/>
		<path class="st2" d="M6.4,10.9v10"/>
		<path class="st2" d="M6.4,20.8l0.8,0.8"/>
		<path class="st2" d="M115.4,28.9h-3.8"/>
		<path class="st2" d="M180,28.9h-64.6"/>
		<path class="st2" d="M111.6,36.1v-7.2"/>
		<path class="st2" d="M111.6,28.9V3.7"/>
		<path class="st2" d="M61.1,3.6H6.4"/>
		<path class="st2" d="M61.2,3.7L61.2,3.7"/>
		<path class="st2" d="M111.6,3.7H61.2"/>
		<path class="st2" d="M61.8,25.3H7.2"/>
		<path class="st2" d="M70.2,33.7l-8.4-8.4"/>
		<path class="st2" d="M7.2,39.7V25.3"/>
		<path class="st2" d="M70.2,37.9v-4.2"/>
		<path class="st2" d="M7.2,25.3v-3.6"/>
		<path class="st2" d="M75.9,46.5l5.1,5.1"/>
		<path class="st2" d="M60.8,46.5h15.1"/>
		<path class="st2" d="M57.6,43.3l3.2,3.2"/>
		<path class="st2" d="M5.5,43.3h52.1"/>
		<path class="st2" d="M3.6,45.2l1.9-1.9"/>
		<path class="st2" d="M3.6,50.5v-5.3"/>
		<path class="st2" d="M7.2,54.1l-3.6-3.6"/>
		<path class="st2" d="M97.3,44l-0.1,0.1"/>
		<path class="st2" d="M111.6,44H97.3"/>
		<path class="st2" d="M120.7,55.8H81"/>
		<path class="st2" d="M180,43.3h-46.8"/>
		<path class="st2" d="M133.2,43.3l-12.5,12.5"/>
		<path class="st2" d="M81,51.6v4.2"/>
		<path class="st2" d="M88.4,44.1L81,51.6"/>
		<path class="st2" d="M97.2,44.1h-8.8"/>
		<path class="st2" d="M154.8,53.8v0.3"/>
		<path class="st2" d="M154.8,54.1l3.6-3.6"/>
		<path class="st2" d="M158.4,50.5H180"/>
		<path class="st2" d="M73.8,60.1v-4.3"/>
		<path class="st2" d="M79,65.2l-5.2-5.2"/>
		<path class="st2" d="M167.7,65.2H79"/>
		<path class="st2" d="M175.3,57.7l-7.6,7.6"/>
		<path class="st2" d="M180,57.7h-4.7"/>
		<path class="st2" d="M21.3,50.5h51.4"/>
		<path class="st2" d="M73.8,51.6v4.2"/>
		<path class="st2" d="M72.7,50.5l1.1,1.1"/>
		<path class="st2" d="M17.7,54.1l3.6-3.6"/>
		<path class="st2" d="M14.4,54.1h3.3"/>
		<path class="st2" d="M77.4,51.6v4.2"/>
		<path class="st2" d="M74.3,48.5l3.1,3.1"/>
		<path class="st2" d="M20.5,48.5h53.9"/>
		<path class="st2" d="M18.9,46.9h-4.5"/>
		<path class="st2" d="M20.5,48.5l-1.6-1.6"/>
		<path class="st2" d="M146.8,57.8v-3.7"/>
		<path class="st2" d="M143.2,61.3l3.5-3.5"/>
		<path class="st2" d="M78.6,61.3h64.6"/>
		<path class="st2" d="M77.4,55.8v4.3"/>
		<path class="st2" d="M77.4,60.1l1.2,1.2"/>
		<path class="st2" d="M70.2,58.2v-2.4"/>
		<path class="st2" d="M7.2,46.9l3.6,3.6"/>
		<path class="st2" d="M10.8,50.5v10.8"/>
		<path class="st2" d="M70.2,60.1v-4.3"/>
		<path class="st2" d="M69,61.3l1.2-1.2"/>
		<path class="st2" d="M10.8,61.3H69"/>
		<path class="st2" d="M81,42.2l-0.3,0.3"/>
		<path class="st2" d="M80.7,42.5H64"/>
		<path class="st2" d="M64,42.5l-2.5-2.5"/>
		<path class="st2" d="M81,37.9v4.3"/>
		<path class="st2" d="M61.5,39.9H21.9"/>
		<path class="st2" d="M21.6,39.7h-7.2"/>
		<path class="st2" d="M21.9,39.9l-0.3-0.3"/>
		<path class="st2" d="M93.5,36.1h3.7"/>
		<path class="st2" d="M82.8,36.1h10.7"/>
		<path class="st2" d="M81,37.9L81,37.9"/>
		<path class="st2" d="M81,37.9l1.8-1.8"/>
		<path class="st2" d="M58.3,11.6l-0.7-0.7"/>
		<path class="st2" d="M78.5,11.6H58.3"/>
		<path class="st2" d="M48.2,10.9H36"/>
		<path class="st2" d="M26.6,10.9H14.4"/>
		<path class="st2" d="M77.4,25.6l1.1-1.1"/>
		<path class="st2" d="M77.4,37.9V25.6"/>
	</g>
</g>
<g>
	<circle class="st1" cx="14.4" cy="54.1" r="1.4"/>
</g>
<g>
	<circle class="st1" cx="7.2" cy="54.1" r="1.4"/>
</g>
<g>
	<circle class="st1" cx="14.4" cy="46.9" r="1.4"/>
</g>
<g>
	<circle class="st1" cx="7.2" cy="46.9" r="1.4"/>
</g>
<g>
	<circle class="st1" cx="14.4" cy="39.7" r="1.4"/>
</g>
<g>
	<circle class="st1" cx="7.2" cy="39.7" r="1.4"/>
</g>
<g>
	<path class="st3" d="M0,0.1h187.2"/>
	<path class="st3" d="M0,72.1v-72"/>
	<path class="st3" d="M187.2,72.1H0"/>
	<path class="st3" d="M187.2,0.1v72"/>
</g>
</svg>
