<?xml version="1.0" standalone="no"?>
 <!DOCTYPE svg PUBLIC "-//W3C//DTD SVG 1.1//EN" 
 "http://www.w3.org/Graphics/SVG/1.1/DTD/svg11.dtd"> 
<svg xmlns="http://www.w3.org/2000/svg" version="1.1" 
    width="6.23824cm" height="2.79654cm" viewBox="0 0 24560 11010 ">
<title>SVG Picture created as 07-brd.svg date 2020/03/10 13:05:15 </title>
  <desc>Picture generated by PCBNEW </desc>
<g style="fill:#000000; fill-opacity:1;stroke:#000000; stroke-opacity:1;
stroke-linecap:round; stroke-linejoin:round; "
 transform="translate(0 0) scale(1 1)">
</g>
<g style="fill:#000000; fill-opacity:0.0; 
stroke:#000000; stroke-width:-0.000393701; stroke-opacity:1; 
stroke-linecap:round; stroke-linejoin:round;">
<g >
</g>
<g >
</g>
<g >
</g>
<g >
</g>
<g >
</g>
<g >
</g>
<g >
</g>
<g >
</g>
<g >
</g>
<g >
</g>
<g >
</g>
<g >
</g>
<g >
</g>
</g>
<g style="fill:#FFFFFF; fill-opacity:0.0; 
stroke:#FFFFFF; stroke-width:-0.000393701; stroke-opacity:1; 
stroke-linecap:round; stroke-linejoin:round;">
</g>
<g style="fill:#000000; fill-opacity:0.0; 
stroke:#000000; stroke-width:-0.000393701; stroke-opacity:1; 
stroke-linecap:round; stroke-linejoin:round;">
<g >
</g>
<g style="fill:#000000; fill-opacity:0.0; 
stroke:#000000; stroke-width:0; stroke-opacity:1; 
stroke-linecap:round; stroke-linejoin:round;">
</g>
<g style="fill:#000000; fill-opacity:1.0; 
stroke:#000000; stroke-width:0; stroke-opacity:1; 
stroke-linecap:round; stroke-linejoin:round;">
<path style="fill:#000000; fill-opacity:1.0; 
stroke:#000000; stroke-width:0; stroke-opacity:1; 
stroke-linecap:round; stroke-linejoin:round;fill-rule:evenodd;"
d="M 15201.2,5195.34
15909.2,5195.34
15909.2,5824.34
15201.2,5824.34
Z" /> 
<path style="fill:#000000; fill-opacity:1.0; 
stroke:#000000; stroke-width:0; stroke-opacity:1; 
stroke-linecap:round; stroke-linejoin:round;fill-rule:evenodd;"
d="M 15201.2,6297.34
15909.2,6297.34
15909.2,6926.34
15201.2,6926.34
Z" /> 
</g>
<g >
</g>
<g style="fill:#000000; fill-opacity:1.0; 
stroke:#000000; stroke-width:0; stroke-opacity:1; 
stroke-linecap:round; stroke-linejoin:round;">
<path style="fill:#000000; fill-opacity:1.0; 
stroke:#000000; stroke-width:0; stroke-opacity:1; 
stroke-linecap:round; stroke-linejoin:round;fill-rule:evenodd;"
d="M 22055.2,4759.84
22055.2,4259.84
23055.2,4259.84
23055.2,4759.84
Z" /> 
<path style="fill:#000000; fill-opacity:1.0; 
stroke:#000000; stroke-width:0; stroke-opacity:1; 
stroke-linecap:round; stroke-linejoin:round;fill-rule:evenodd;"
d="M 22055.2,5759.84
22055.2,5259.84
23055.2,5259.84
23055.2,5759.84
Z" /> 
<path style="fill:#000000; fill-opacity:1.0; 
stroke:#000000; stroke-width:0; stroke-opacity:1; 
stroke-linecap:round; stroke-linejoin:round;fill-rule:evenodd;"
d="M 22055.2,6759.84
22055.2,6259.84
23055.2,6259.84
23055.2,6759.84
Z" /> 
<path style="fill:#000000; fill-opacity:1.0; 
stroke:#000000; stroke-width:0; stroke-opacity:1; 
stroke-linecap:round; stroke-linejoin:round;fill-rule:evenodd;"
d="M 22055.2,7759.84
22055.2,7259.84
23055.2,7259.84
23055.2,7759.84
Z" /> 
<path style="fill:#000000; fill-opacity:1.0; 
stroke:#000000; stroke-width:0; stroke-opacity:1; 
stroke-linecap:round; stroke-linejoin:round;fill-rule:evenodd;"
d="M 22055.2,8759.84
22055.2,8259.84
23055.2,8259.84
23055.2,8759.84
Z" /> 
<path style="fill:#000000; fill-opacity:1.0; 
stroke:#000000; stroke-width:0; stroke-opacity:1; 
stroke-linecap:round; stroke-linejoin:round;fill-rule:evenodd;"
d="M 22055.2,9759.84
22055.2,9259.84
23055.2,9259.84
23055.2,9759.84
Z" /> 
</g>
<g >
</g>
<g style="fill:#000000; fill-opacity:1.0; 
stroke:#000000; stroke-width:0; stroke-opacity:1; 
stroke-linecap:round; stroke-linejoin:round;">
<path style="fill:#000000; fill-opacity:1.0; 
stroke:#000000; stroke-width:0; stroke-opacity:1; 
stroke-linecap:round; stroke-linejoin:round;fill-rule:evenodd;"
d="M 8305.19,1634.84
8305.19,2384.84
7805.19,2384.84
7805.19,1634.84
Z" /> 
<path style="fill:#000000; fill-opacity:1.0; 
stroke:#000000; stroke-width:0; stroke-opacity:1; 
stroke-linecap:round; stroke-linejoin:round;fill-rule:evenodd;"
d="M 7005.19,1634.84
7005.19,2384.84
6505.19,2384.84
6505.19,1634.84
Z" /> 
</g>
<g >
</g>
<g style="fill:#000000; fill-opacity:1.0; 
stroke:#000000; stroke-width:0; stroke-opacity:1; 
stroke-linecap:round; stroke-linejoin:round;">
<path style="fill:#000000; fill-opacity:1.0; 
stroke:#000000; stroke-width:0; stroke-opacity:1; 
stroke-linecap:round; stroke-linejoin:round;fill-rule:evenodd;"
d="M 4005.19,1634.84
4005.19,2384.84
3505.19,2384.84
3505.19,1634.84
Z" /> 
<path style="fill:#000000; fill-opacity:1.0; 
stroke:#000000; stroke-width:0; stroke-opacity:1; 
stroke-linecap:round; stroke-linejoin:round;fill-rule:evenodd;"
d="M 5305.19,1634.84
5305.19,2384.84
4805.19,2384.84
4805.19,1634.84
Z" /> 
</g>
<g >
</g>
<g style="fill:#000000; fill-opacity:1.0; 
stroke:#000000; stroke-width:0; stroke-opacity:1; 
stroke-linecap:round; stroke-linejoin:round;">
<path style="fill:#000000; fill-opacity:1.0; 
stroke:#000000; stroke-width:0; stroke-opacity:1; 
stroke-linecap:round; stroke-linejoin:round;fill-rule:evenodd;"
d="M 11403.2,5335.84
11403.2,6201.84
11207.2,6201.84
11207.2,5335.84
Z" /> 
<path style="fill:#000000; fill-opacity:1.0; 
stroke:#000000; stroke-width:0; stroke-opacity:1; 
stroke-linecap:round; stroke-linejoin:round;fill-rule:evenodd;"
d="M 10906.2,5335.84
10906.2,6201.84
10710.2,6201.84
10710.2,5335.84
Z" /> 
<path style="fill:#000000; fill-opacity:1.0; 
stroke:#000000; stroke-width:0; stroke-opacity:1; 
stroke-linecap:round; stroke-linejoin:round;fill-rule:evenodd;"
d="M 10407.2,5335.84
10407.2,6201.84
10211.2,6201.84
10211.2,5335.84
Z" /> 
<path style="fill:#000000; fill-opacity:1.0; 
stroke:#000000; stroke-width:0; stroke-opacity:1; 
stroke-linecap:round; stroke-linejoin:round;fill-rule:evenodd;"
d="M 9907.19,5335.84
9907.19,6201.84
9711.19,6201.84
9711.19,5335.84
Z" /> 
<path style="fill:#000000; fill-opacity:1.0; 
stroke:#000000; stroke-width:0; stroke-opacity:1; 
stroke-linecap:round; stroke-linejoin:round;fill-rule:evenodd;"
d="M 9903.19,7817.84
9903.19,8683.84
9707.19,8683.84
9707.19,7817.84
Z" /> 
<path style="fill:#000000; fill-opacity:1.0; 
stroke:#000000; stroke-width:0; stroke-opacity:1; 
stroke-linecap:round; stroke-linejoin:round;fill-rule:evenodd;"
d="M 10403.2,7817.84
10403.2,8683.84
10207.2,8683.84
10207.2,7817.84
Z" /> 
<path style="fill:#000000; fill-opacity:1.0; 
stroke:#000000; stroke-width:0; stroke-opacity:1; 
stroke-linecap:round; stroke-linejoin:round;fill-rule:evenodd;"
d="M 10903.2,7817.84
10903.2,8683.84
10707.2,8683.84
10707.2,7817.84
Z" /> 
<path style="fill:#000000; fill-opacity:1.0; 
stroke:#000000; stroke-width:0; stroke-opacity:1; 
stroke-linecap:round; stroke-linejoin:round;fill-rule:evenodd;"
d="M 11403.2,7817.84
11403.2,8683.84
11207.2,8683.84
11207.2,7817.84
Z" /> 
</g>
<g >
</g>
<g style="fill:#000000; fill-opacity:1.0; 
stroke:#000000; stroke-width:0; stroke-opacity:1; 
stroke-linecap:round; stroke-linejoin:round;">
<path style="fill:#000000; fill-opacity:1.0; 
stroke:#000000; stroke-width:0; stroke-opacity:1; 
stroke-linecap:round; stroke-linejoin:round;fill-rule:evenodd;"
d="M 13200.7,5195.34
13909.7,5195.34
13909.7,5824.34
13200.7,5824.34
Z" /> 
<path style="fill:#000000; fill-opacity:1.0; 
stroke:#000000; stroke-width:0; stroke-opacity:1; 
stroke-linecap:round; stroke-linejoin:round;fill-rule:evenodd;"
d="M 13200.7,6313.34
13909.7,6313.34
13909.7,6942.34
13200.7,6942.34
Z" /> 
</g>
<g >
</g>
<g style="fill:#000000; fill-opacity:1.0; 
stroke:#000000; stroke-width:0; stroke-opacity:1; 
stroke-linecap:round; stroke-linejoin:round;">
<path style="fill:#000000; fill-opacity:1.0; 
stroke:#000000; stroke-width:0; stroke-opacity:1; 
stroke-linecap:round; stroke-linejoin:round;fill-rule:evenodd;"
d="M 18869.7,7655.34
18869.7,8364.34
18240.7,8364.34
18240.7,7655.34
Z" /> 
<path style="fill:#000000; fill-opacity:1.0; 
stroke:#000000; stroke-width:0; stroke-opacity:1; 
stroke-linecap:round; stroke-linejoin:round;fill-rule:evenodd;"
d="M 19987.7,7655.34
19987.7,8364.34
19358.7,8364.34
19358.7,7655.34
Z" /> 
</g>
<g >
</g>
<g style="fill:#000000; fill-opacity:1.0; 
stroke:#000000; stroke-width:0; stroke-opacity:1; 
stroke-linecap:round; stroke-linejoin:round;">
<path style="fill:#000000; fill-opacity:1.0; 
stroke:#000000; stroke-width:0; stroke-opacity:1; 
stroke-linecap:round; stroke-linejoin:round;fill-rule:evenodd;"
d="M 2369.69,1655.34
2369.69,2364.34
1740.69,2364.34
1740.69,1655.34
Z" /> 
<path style="fill:#000000; fill-opacity:1.0; 
stroke:#000000; stroke-width:0; stroke-opacity:1; 
stroke-linecap:round; stroke-linejoin:round;fill-rule:evenodd;"
d="M 1251.69,1655.34
1251.69,2364.34
622.691,2364.34
622.691,1655.34
Z" /> 
</g>
<g >
</g>
<g style="fill:#000000; fill-opacity:1.0; 
stroke:#000000; stroke-width:0; stroke-opacity:1; 
stroke-linecap:round; stroke-linejoin:round;">
<path style="fill:#000000; fill-opacity:1.0; 
stroke:#000000; stroke-width:0; stroke-opacity:1; 
stroke-linecap:round; stroke-linejoin:round;fill-rule:evenodd;"
d="M 10505.2,2409.84
10505.2,1809.84
11405.2,1809.84
11405.2,2409.84
Z" /> 
<path style="fill:#000000; fill-opacity:1.0; 
stroke:#000000; stroke-width:0; stroke-opacity:1; 
stroke-linecap:round; stroke-linejoin:round;fill-rule:evenodd;"
d="M 13105.2,2409.84
13105.2,1809.84
14005.2,1809.84
14005.2,2409.84
Z" /> 
<path style="fill:#000000; fill-opacity:1.0; 
stroke:#000000; stroke-width:0; stroke-opacity:1; 
stroke-linecap:round; stroke-linejoin:round;fill-rule:evenodd;"
d="M 10505.2,4209.84
10505.2,3609.84
11405.2,3609.84
11405.2,4209.84
Z" /> 
<path style="fill:#000000; fill-opacity:1.0; 
stroke:#000000; stroke-width:0; stroke-opacity:1; 
stroke-linecap:round; stroke-linejoin:round;fill-rule:evenodd;"
d="M 13105.2,4209.84
13105.2,3609.84
14005.2,3609.84
14005.2,4209.84
Z" /> 
</g>
<g >
</g>
<g style="fill:#000000; fill-opacity:1.0; 
stroke:#000000; stroke-width:0; stroke-opacity:1; 
stroke-linecap:round; stroke-linejoin:round;">
<path style="fill:#000000; fill-opacity:1.0; 
stroke:#000000; stroke-width:0; stroke-opacity:1; 
stroke-linecap:round; stroke-linejoin:round;fill-rule:evenodd;"
d="M 5055.19,7759.84
5055.19,8259.84
4055.19,8259.84
4055.19,7759.84
Z" /> 
<path style="fill:#000000; fill-opacity:1.0; 
stroke:#000000; stroke-width:0; stroke-opacity:1; 
stroke-linecap:round; stroke-linejoin:round;fill-rule:evenodd;"
d="M 2906.19,7759.84
2906.19,8259.84
1906.19,8259.84
1906.19,7759.84
Z" /> 
<path style="fill:#000000; fill-opacity:1.0; 
stroke:#000000; stroke-width:0; stroke-opacity:1; 
stroke-linecap:round; stroke-linejoin:round;fill-rule:evenodd;"
d="M 5055.19,6759.84
5055.19,7259.84
4055.19,7259.84
4055.19,6759.84
Z" /> 
<path style="fill:#000000; fill-opacity:1.0; 
stroke:#000000; stroke-width:0; stroke-opacity:1; 
stroke-linecap:round; stroke-linejoin:round;fill-rule:evenodd;"
d="M 2906.19,6759.84
2906.19,7259.84
1906.19,7259.84
1906.19,6759.84
Z" /> 
<path style="fill:#000000; fill-opacity:1.0; 
stroke:#000000; stroke-width:0; stroke-opacity:1; 
stroke-linecap:round; stroke-linejoin:round;fill-rule:evenodd;"
d="M 5055.19,5759.84
5055.19,6259.84
4055.19,6259.84
4055.19,5759.84
Z" /> 
<path style="fill:#000000; fill-opacity:1.0; 
stroke:#000000; stroke-width:0; stroke-opacity:1; 
stroke-linecap:round; stroke-linejoin:round;fill-rule:evenodd;"
d="M 2906.19,5759.84
2906.19,6259.84
1906.19,6259.84
1906.19,5759.84
Z" /> 
</g>
<g >
</g>
<g >
</g>
<g style="fill:#000000; fill-opacity:1.0; 
stroke:#000000; stroke-width:0; stroke-opacity:1; 
stroke-linecap:round; stroke-linejoin:round;">
</g>
<g style="fill:#000000; fill-opacity:1.0; 
stroke:#000000; stroke-width:157.48; stroke-opacity:1; 
stroke-linecap:round; stroke-linejoin:round;">
</g>
<g style="fill:#000000; fill-opacity:0.0; 
stroke:#000000; stroke-width:157.48; stroke-opacity:1; 
stroke-linecap:round; stroke-linejoin:round;">
<path d="M937 2009
L937 997
" />
<path d="M16083 4509
L15555 4509
" />
<path d="M15555 5509
L15555 4509
" />
<path d="M15555 4509
L15555 1009
" />
</g>
<g style="fill:#000000; fill-opacity:0.0; 
stroke:#000000; stroke-width:314.961; stroke-opacity:1; 
stroke-linecap:round; stroke-linejoin:round;">
<path d="M2406 4158
L2555 4009
" />
<path d="M2406 6009
L2406 4158
" />
<path d="M22555 4509
L15555 4509
" />
<path d="M15555 5509
L15555 1009
" />
<path d="M949 1009
L937 997
" />
<path d="M15555 1009
L949 1009
" />
<path d="M937 1021
L937 2009
" />
<path d="M949 1009
L937 1021
" />
<path d="M937 2009
L937 3891
" />
<path d="M1055 4009
L2555 4009
" />
<path d="M937 3891
L1055 4009
" />
<path d="M9809 5020
L9809 5768
" />
<path d="M8798 4009
L9809 5020
" />
<path d="M2555 4009
L8798 4009
" />
<path d="M13571 6611
L13555 6627
" />
<path d="M15555 6611
L13571 6611
" />
<path d="M11718 8250
L11305 8250
" />
<path d="M12561 8250
L11718 8250
" />
<path d="M13555 7257
L12561 8250
" />
<path d="M13555 6627
L13555 7257
" />
<path d="M15657 6509
L15555 6611
" />
<path d="M22555 6509
L15657 6509
" />
<path d="M23370 7074
L22805 6509
" />
<path d="M23370 9940
L23370 7074
" />
<path d="M23275 10035
L23370 9940
" />
<path d="M3866 10035
L23275 10035
" />
<path d="M22805 6509
L22555 6509
" />
<path d="M2406 8574
L3866 10035
" />
<path d="M2406 8009
L2406 8574
" />
<path d="M20173 7509
L19673 8009
" />
<path d="M22555 7509
L20173 7509
" />
<path d="M10305 8998
L10305 8250
" />
<path d="M10698 9392
L10305 8998
" />
<path d="M20857 9392
L10698 9392
" />
<path d="M21740 8509
L20857 9392
" />
<path d="M22555 8509
L21740 8509
" />
<path d="M5370 8009
L4555 8009
" />
<path d="M5837 7542
L5370 8009
" />
<path d="M10305 7723
L10123 7542
" />
<path d="M10123 7542
L5837 7542
" />
<path d="M10305 8250
L10305 7723
" />
<path d="M8155 2109
L8055 2009
" />
<path d="M10955 2109
L8155 2109
" />
<path d="M6755 2009
L5055 2009
" />
<path d="M3755 2009
L2055 2009
" />
<path d="M10808 4056
L10808 5768
" />
<path d="M10955 3909
L10808 4056
" />
<path d="M11564 5509
L11305 5768
" />
<path d="M13555 5509
L11564 5509
" />
<path d="M8056 6009
L5370 6009
" />
<path d="M5370 6009
L4555 6009
" />
<path d="M8523 6477
L8056 6009
" />
<path d="M11126 6477
L8523 6477
" />
<path d="M11305 6298
L11126 6477
" />
<path d="M11305 5768
L11305 6298
" />
<path d="M2156 7009
L2406 7009
" />
<path d="M9805 8250
L9805 8585
" />
<path d="M3181 7539
L2652 7009
" />
<path d="M2652 7009
L2406 7009
" />
<path d="M3181 7882
L3181 7539
" />
<path d="M3834 8535
L3181 7882
" />
<path d="M9107 8535
L3834 8535
" />
<path d="M9392 8250
L9107 8535
" />
<path d="M9805 8250
L9392 8250
" />
<path d="M18555 8679
L18555 8009
" />
<path d="M10986 8959
L18275 8959
" />
<path d="M18275 8959
L18555 8679
" />
<path d="M10805 8777
L10986 8959
" />
<path d="M10805 8250
L10805 8777
" />
<path d="M10312 7009
L10805 7502
" />
<path d="M10805 7502
L10805 8250
" />
<path d="M4555 7009
L10312 7009
" />
</g>
<g >
</g>
</g>
<g style="fill:#FFFFFF; fill-opacity:0.0; 
stroke:#FFFFFF; stroke-width:314.961; stroke-opacity:1; 
stroke-linecap:round; stroke-linejoin:round;">
</g>
<g style="fill:#000000; fill-opacity:0.0; 
stroke:#000000; stroke-width:314.961; stroke-opacity:1; 
stroke-linecap:round; stroke-linejoin:round;">
</g>
<g style="fill:#000000; fill-opacity:0.0; 
stroke:#000000; stroke-width:19.685; stroke-opacity:1; 
stroke-linecap:round; stroke-linejoin:round;">
<path d="M24555 9
L55 9
" />
<path d="M24555 11009
L24555 9
" />
<path d="M55 11009
L24555 11009
" />
<path d="M55 9
L55 11009
" />
<g >
</g>
<g >
</g>
<g >
</g>
<g >
</g>
<g >
</g>
<g >
</g>
<g >
</g>
<g >
</g>
<g >
</g>
<g >
</g>
<g >
</g>
</g> 
</svg>
