  0
SECTION
  2
HEADER
  9
$ACADVER
  1
AC1009
  9
$EXTMIN
 10
0.0
 20
0.0
 30
0.0
  9
$EXTMAX
 10
1000.0
 20
1000.0
 30
0.0
  9
$FILLMODE
 70
 0
  9
$SPLFRAME
 70
 1
  0
ENDSEC
  0
SECTION
  2
TABLES
  0
TABLE
  2
LAYER
 70
1
  0
LAYER
  2
0
 70
     0
 62
     7
  6
CONTINUOUS
  0
ENDTAB
  0
ENDSEC
  0
SECTION
  2
ENTITIES
  0
POLYLINE
  8
0
 62
     0
 66
     1
 10
0
 20
0
 30
0.0
 70
     1
 40
0
 41
0
  0
VERTEX
  8
0
 10
15.2817
 20
381.176
 30
0.0
 40
0
 41
0
  0
VERTEX
  8
0
 10
8.75
 20
377.406
 30
0.0
 40
0
 41
0
  0
VERTEX
  8
0
 10
15
 20
366.581
 30
0.0
 40
0
 41
0
  0
VERTEX
  8
0
 10
28.65
 20
366.581
 30
0.0
 40
0
 41
0
  0
VERTEX
  8
0
 10
28.65
 20
374.122
 30
0.0
 40
0
 41
0
  0
VERTEX
  8
0
 10
32.5
 20
374.122
 30
0.0
 40
0
 41
0
  0
VERTEX
  8
0
 10
32.5
 20
366.581
 30
0.0
 40
0
 41
0
  0
VERTEX
  8
0
 10
45
 20
366.581
 30
0.0
 40
0
 41
0
  0
VERTEX
  8
0
 10
51.825
 20
378.401
 30
0.0
 40
0
 41
0
  0
VERTEX
  8
0
 10
45.2933
 20
382.172
 30
0.0
 40
0
 41
0
  0
VERTEX
  8
0
 10
47.2183
 20
385.507
 30
0.0
 40
0
 41
0
  0
VERTEX
  8
0
 10
53.75
 20
381.736
 30
0.0
 40
0
 41
0
  0
VERTEX
  8
0
 10
60
 20
392.561
 30
0.0
 40
0
 41
0
  0
VERTEX
  8
0
 10
53.175
 20
404.382
 30
0.0
 40
0
 41
0
  0
VERTEX
  8
0
 10
46.6433
 20
400.611
 30
0.0
 40
0
 41
0
  0
VERTEX
  8
0
 10
44.7183
 20
403.946
 30
0.0
 40
0
 41
0
  0
VERTEX
  8
0
 10
51.25
 20
407.717
 30
0.0
 40
0
 41
0
  0
VERTEX
  8
0
 10
45
 20
418.542
 30
0.0
 40
0
 41
0
  0
VERTEX
  8
0
 10
31.35
 20
418.542
 30
0.0
 40
0
 41
0
  0
VERTEX
  8
0
 10
31.35
 20
411
 30
0.0
 40
0
 41
0
  0
VERTEX
  8
0
 10
27.5
 20
411
 30
0.0
 40
0
 41
0
  0
VERTEX
  8
0
 10
27.5
 20
418.542
 30
0.0
 40
0
 41
0
  0
VERTEX
  8
0
 10
15
 20
418.542
 30
0.0
 40
0
 41
0
  0
VERTEX
  8
0
 10
8.17503
 20
406.721
 30
0.0
 40
0
 41
0
  0
VERTEX
  8
0
 10
14.7067
 20
402.95
 30
0.0
 40
0
 41
0
  0
VERTEX
  8
0
 10
12.7817
 20
399.615
 30
0.0
 40
0
 41
0
  0
VERTEX
  8
0
 10
6.25
 20
403.386
 30
0.0
 40
0
 41
0
  0
VERTEX
  8
0
 10
0
 20
392.561
 30
0.0
 40
0
 41
0
  0
VERTEX
  8
0
 10
6.82497
 20
380.74
 30
0.0
 40
0
 41
0
  0
VERTEX
  8
0
 10
13.3567
 20
384.511
 30
0.0
 40
0
 41
0
  0
VERTEX
  8
0
 10
15.2817
 20
381.176
 30
0.0
 40
0
 41
0
  0
SEQEND
 8
0
  0
POLYLINE
  8
0
 62
     0
 66
     1
 10
0
 20
0
 30
0.0
 70
     1
 40
0
 41
0
  0
VERTEX
  8
0
 10
44.7183
 20
351.274
 30
0.0
 40
0
 41
0
  0
VERTEX
  8
0
 10
51.25
 20
355.044
 30
0.0
 40
0
 41
0
  0
VERTEX
  8
0
 10
45
 20
365.869
 30
0.0
 40
0
 41
0
  0
VERTEX
  8
0
 10
31.35
 20
365.869
 30
0.0
 40
0
 41
0
  0
VERTEX
  8
0
 10
31.35
 20
358.328
 30
0.0
 40
0
 41
0
  0
VERTEX
  8
0
 10
27.5
 20
358.328
 30
0.0
 40
0
 41
0
  0
VERTEX
  8
0
 10
27.5
 20
365.869
 30
0.0
 40
0
 41
0
  0
VERTEX
  8
0
 10
15
 20
365.869
 30
0.0
 40
0
 41
0
  0
VERTEX
  8
0
 10
8.17503
 20
354.049
 30
0.0
 40
0
 41
0
  0
VERTEX
  8
0
 10
14.7067
 20
350.278
 30
0.0
 40
0
 41
0
  0
VERTEX
  8
0
 10
12.7817
 20
346.943
 30
0.0
 40
0
 41
0
  0
VERTEX
  8
0
 10
6.25
 20
350.714
 30
0.0
 40
0
 41
0
  0
VERTEX
  8
0
 10
0
 20
339.889
 30
0.0
 40
0
 41
0
  0
VERTEX
  8
0
 10
6.82497
 20
328.068
 30
0.0
 40
0
 41
0
  0
VERTEX
  8
0
 10
13.3567
 20
331.839
 30
0.0
 40
0
 41
0
  0
VERTEX
  8
0
 10
15.2817
 20
328.506
 30
0.0
 40
0
 41
0
  0
VERTEX
  8
0
 10
8.75
 20
324.733
 30
0.0
 40
0
 41
0
  0
VERTEX
  8
0
 10
15
 20
313.908
 30
0.0
 40
0
 41
0
  0
VERTEX
  8
0
 10
28.65
 20
313.908
 30
0.0
 40
0
 41
0
  0
VERTEX
  8
0
 10
28.65
 20
321.45
 30
0.0
 40
0
 41
0
  0
VERTEX
  8
0
 10
32.5
 20
321.45
 30
0.0
 40
0
 41
0
  0
VERTEX
  8
0
 10
32.5
 20
313.908
 30
0.0
 40
0
 41
0
  0
VERTEX
  8
0
 10
45
 20
313.908
 30
0.0
 40
0
 41
0
  0
VERTEX
  8
0
 10
51.825
 20
325.729
 30
0.0
 40
0
 41
0
  0
VERTEX
  8
0
 10
45.2933
 20
329.501
 30
0.0
 40
0
 41
0
  0
VERTEX
  8
0
 10
47.2183
 20
332.835
 30
0.0
 40
0
 41
0
  0
VERTEX
  8
0
 10
53.75
 20
329.064
 30
0.0
 40
0
 41
0
  0
VERTEX
  8
0
 10
60
 20
339.889
 30
0.0
 40
0
 41
0
  0
VERTEX
  8
0
 10
53.175
 20
351.711
 30
0.0
 40
0
 41
0
  0
VERTEX
  8
0
 10
46.6433
 20
347.939
 30
0.0
 40
0
 41
0
  0
VERTEX
  8
0
 10
44.7183
 20
351.274
 30
0.0
 40
0
 41
0
  0
SEQEND
 8
0
  0
POLYLINE
  8
0
 62
     0
 66
     1
 10
0
 20
0
 30
0.0
 70
     1
 40
0
 41
0
  0
VERTEX
  8
0
 10
15.2817
 20
276.543
 30
0.0
 40
0
 41
0
  0
VERTEX
  8
0
 10
8.75
 20
272.772
 30
0.0
 40
0
 41
0
  0
VERTEX
  8
0
 10
15
 20
261.947
 30
0.0
 40
0
 41
0
  0
VERTEX
  8
0
 10
28.65
 20
261.947
 30
0.0
 40
0
 41
0
  0
VERTEX
  8
0
 10
28.65
 20
269.489
 30
0.0
 40
0
 41
0
  0
VERTEX
  8
0
 10
32.5
 20
269.489
 30
0.0
 40
0
 41
0
  0
VERTEX
  8
0
 10
32.5
 20
261.947
 30
0.0
 40
0
 41
0
  0
VERTEX
  8
0
 10
45
 20
261.947
 30
0.0
 40
0
 41
0
  0
VERTEX
  8
0
 10
51.825
 20
273.768
 30
0.0
 40
0
 41
0
  0
VERTEX
  8
0
 10
45.2933
 20
277.539
 30
0.0
 40
0
 41
0
  0
VERTEX
  8
0
 10
47.2183
 20
280.874
 30
0.0
 40
0
 41
0
  0
VERTEX
  8
0
 10
53.75
 20
277.103
 30
0.0
 40
0
 41
0
  0
VERTEX
  8
0
 10
60
 20
287.928
 30
0.0
 40
0
 41
0
  0
VERTEX
  8
0
 10
53.175
 20
299.749
 30
0.0
 40
0
 41
0
  0
VERTEX
  8
0
 10
46.6433
 20
295.978
 30
0.0
 40
0
 41
0
  0
VERTEX
  8
0
 10
44.7183
 20
299.313
 30
0.0
 40
0
 41
0
  0
VERTEX
  8
0
 10
51.25
 20
303.083
 30
0.0
 40
0
 41
0
  0
VERTEX
  8
0
 10
45
 20
313.908
 30
0.0
 40
0
 41
0
  0
VERTEX
  8
0
 10
31.35
 20
313.908
 30
0.0
 40
0
 41
0
  0
VERTEX
  8
0
 10
31.35
 20
306.367
 30
0.0
 40
0
 41
0
  0
VERTEX
  8
0
 10
27.5
 20
306.367
 30
0.0
 40
0
 41
0
  0
VERTEX
  8
0
 10
27.5
 20
313.908
 30
0.0
 40
0
 41
0
  0
VERTEX
  8
0
 10
15
 20
313.908
 30
0.0
 40
0
 41
0
  0
VERTEX
  8
0
 10
8.17503
 20
302.088
 30
0.0
 40
0
 41
0
  0
VERTEX
  8
0
 10
14.7067
 20
298.317
 30
0.0
 40
0
 41
0
  0
VERTEX
  8
0
 10
12.7817
 20
294.982
 30
0.0
 40
0
 41
0
  0
VERTEX
  8
0
 10
6.25
 20
298.753
 30
0.0
 40
0
 41
0
  0
VERTEX
  8
0
 10
0
 20
287.928
 30
0.0
 40
0
 41
0
  0
VERTEX
  8
0
 10
6.82497
 20
276.107
 30
0.0
 40
0
 41
0
  0
VERTEX
  8
0
 10
13.3567
 20
279.878
 30
0.0
 40
0
 41
0
  0
VERTEX
  8
0
 10
15.2817
 20
276.543
 30
0.0
 40
0
 41
0
  0
SEQEND
 8
0
  0
POLYLINE
  8
0
 62
     0
 66
     1
 10
0
 20
0
 30
0.0
 70
     1
 40
0
 41
0
  0
VERTEX
  8
0
 10
44.7183
 20
246.64
 30
0.0
 40
0
 41
0
  0
VERTEX
  8
0
 10
51.25
 20
250.411
 30
0.0
 40
0
 41
0
  0
VERTEX
  8
0
 10
45
 20
261.236
 30
0.0
 40
0
 41
0
  0
VERTEX
  8
0
 10
31.35
 20
261.236
 30
0.0
 40
0
 41
0
  0
VERTEX
  8
0
 10
31.35
 20
253.694
 30
0.0
 40
0
 41
0
  0
VERTEX
  8
0
 10
27.5
 20
253.694
 30
0.0
 40
0
 41
0
  0
VERTEX
  8
0
 10
27.5
 20
261.236
 30
0.0
 40
0
 41
0
  0
VERTEX
  8
0
 10
15
 20
261.236
 30
0.0
 40
0
 41
0
  0
VERTEX
  8
0
 10
8.17503
 20
249.415
 30
0.0
 40
0
 41
0
  0
VERTEX
  8
0
 10
14.7067
 20
245.644
 30
0.0
 40
0
 41
0
  0
VERTEX
  8
0
 10
12.7817
 20
242.31
 30
0.0
 40
0
 41
0
  0
VERTEX
  8
0
 10
6.25
 20
246.082
 30
0.0
 40
0
 41
0
  0
VERTEX
  8
0
 10
0
 20
235.256
 30
0.0
 40
0
 41
0
  0
VERTEX
  8
0
 10
6.82497
 20
223.435
 30
0.0
 40
0
 41
0
  0
VERTEX
  8
0
 10
13.3567
 20
227.206
 30
0.0
 40
0
 41
0
  0
VERTEX
  8
0
 10
15.2817
 20
223.872
 30
0.0
 40
0
 41
0
  0
VERTEX
  8
0
 10
8.75
 20
220.1
 30
0.0
 40
0
 41
0
  0
VERTEX
  8
0
 10
15
 20
209.275
 30
0.0
 40
0
 41
0
  0
VERTEX
  8
0
 10
28.65
 20
209.275
 30
0.0
 40
0
 41
0
  0
VERTEX
  8
0
 10
28.65
 20
216.818
 30
0.0
 40
0
 41
0
  0
VERTEX
  8
0
 10
32.5
 20
216.818
 30
0.0
 40
0
 41
0
  0
VERTEX
  8
0
 10
32.5
 20
209.275
 30
0.0
 40
0
 41
0
  0
VERTEX
  8
0
 10
45
 20
209.275
 30
0.0
 40
0
 41
0
  0
VERTEX
  8
0
 10
51.825
 20
221.096
 30
0.0
 40
0
 41
0
  0
VERTEX
  8
0
 10
45.2933
 20
224.868
 30
0.0
 40
0
 41
0
  0
VERTEX
  8
0
 10
47.2183
 20
228.201
 30
0.0
 40
0
 41
0
  0
VERTEX
  8
0
 10
53.75
 20
224.431
 30
0.0
 40
0
 41
0
  0
VERTEX
  8
0
 10
60
 20
235.256
 30
0.0
 40
0
 41
0
  0
VERTEX
  8
0
 10
53.175
 20
247.078
 30
0.0
 40
0
 41
0
  0
VERTEX
  8
0
 10
46.6433
 20
243.306
 30
0.0
 40
0
 41
0
  0
VERTEX
  8
0
 10
44.7183
 20
246.64
 30
0.0
 40
0
 41
0
  0
SEQEND
 8
0
  0
POLYLINE
  8
0
 62
     0
 66
     1
 10
0
 20
0
 30
0.0
 70
     1
 40
0
 41
0
  0
VERTEX
  8
0
 10
44.7183
 20
194.679
 30
0.0
 40
0
 41
0
  0
VERTEX
  8
0
 10
51.25
 20
198.45
 30
0.0
 40
0
 41
0
  0
VERTEX
  8
0
 10
45
 20
209.275
 30
0.0
 40
0
 41
0
  0
VERTEX
  8
0
 10
31.35
 20
209.275
 30
0.0
 40
0
 41
0
  0
VERTEX
  8
0
 10
31.35
 20
201.733
 30
0.0
 40
0
 41
0
  0
VERTEX
  8
0
 10
27.5
 20
201.733
 30
0.0
 40
0
 41
0
  0
VERTEX
  8
0
 10
27.5
 20
209.275
 30
0.0
 40
0
 41
0
  0
VERTEX
  8
0
 10
15
 20
209.275
 30
0.0
 40
0
 41
0
  0
VERTEX
  8
0
 10
8.17503
 20
197.454
 30
0.0
 40
0
 41
0
  0
VERTEX
  8
0
 10
14.7067
 20
193.683
 30
0.0
 40
0
 41
0
  0
VERTEX
  8
0
 10
12.7817
 20
190.349
 30
0.0
 40
0
 41
0
  0
VERTEX
  8
0
 10
6.25
 20
194.119
 30
0.0
 40
0
 41
0
  0
VERTEX
  8
0
 10
0
 20
183.294
 30
0.0
 40
0
 41
0
  0
VERTEX
  8
0
 10
6.82497
 20
171.474
 30
0.0
 40
0
 41
0
  0
VERTEX
  8
0
 10
13.3567
 20
175.244
 30
0.0
 40
0
 41
0
  0
VERTEX
  8
0
 10
15.2817
 20
171.91
 30
0.0
 40
0
 41
0
  0
VERTEX
  8
0
 10
8.75
 20
168.139
 30
0.0
 40
0
 41
0
  0
VERTEX
  8
0
 10
15
 20
157.314
 30
0.0
 40
0
 41
0
  0
VERTEX
  8
0
 10
28.65
 20
157.314
 30
0.0
 40
0
 41
0
  0
VERTEX
  8
0
 10
28.65
 20
164.856
 30
0.0
 40
0
 41
0
  0
VERTEX
  8
0
 10
32.5
 20
164.856
 30
0.0
 40
0
 41
0
  0
VERTEX
  8
0
 10
32.5
 20
157.314
 30
0.0
 40
0
 41
0
  0
VERTEX
  8
0
 10
45
 20
157.314
 30
0.0
 40
0
 41
0
  0
VERTEX
  8
0
 10
51.825
 20
169.135
 30
0.0
 40
0
 41
0
  0
VERTEX
  8
0
 10
45.2933
 20
172.906
 30
0.0
 40
0
 41
0
  0
VERTEX
  8
0
 10
47.2183
 20
176.24
 30
0.0
 40
0
 41
0
  0
VERTEX
  8
0
 10
53.75
 20
172.469
 30
0.0
 40
0
 41
0
  0
VERTEX
  8
0
 10
60
 20
183.294
 30
0.0
 40
0
 41
0
  0
VERTEX
  8
0
 10
53.175
 20
195.115
 30
0.0
 40
0
 41
0
  0
VERTEX
  8
0
 10
46.6433
 20
191.344
 30
0.0
 40
0
 41
0
  0
VERTEX
  8
0
 10
44.7183
 20
194.679
 30
0.0
 40
0
 41
0
  0
SEQEND
 8
0
  0
POLYLINE
  8
0
 62
     0
 66
     1
 10
0
 20
0
 30
0.0
 70
     1
 40
0
 41
0
  0
VERTEX
  8
0
 10
44.7183
 20
142.007
 30
0.0
 40
0
 41
0
  0
VERTEX
  8
0
 10
51.25
 20
145.778
 30
0.0
 40
0
 41
0
  0
VERTEX
  8
0
 10
45
 20
156.604
 30
0.0
 40
0
 41
0
  0
VERTEX
  8
0
 10
31.35
 20
156.604
 30
0.0
 40
0
 41
0
  0
VERTEX
  8
0
 10
31.35
 20
149.061
 30
0.0
 40
0
 41
0
  0
VERTEX
  8
0
 10
27.5
 20
149.061
 30
0.0
 40
0
 41
0
  0
VERTEX
  8
0
 10
27.5
 20
156.604
 30
0.0
 40
0
 41
0
  0
VERTEX
  8
0
 10
15
 20
156.604
 30
0.0
 40
0
 41
0
  0
VERTEX
  8
0
 10
8.17503
 20
144.782
 30
0.0
 40
0
 41
0
  0
VERTEX
  8
0
 10
14.7067
 20
141.011
 30
0.0
 40
0
 41
0
  0
VERTEX
  8
0
 10
12.7817
 20
137.677
 30
0.0
 40
0
 41
0
  0
VERTEX
  8
0
 10
6.25
 20
141.449
 30
0.0
 40
0
 41
0
  0
VERTEX
  8
0
 10
0
 20
130.623
 30
0.0
 40
0
 41
0
  0
VERTEX
  8
0
 10
6.82497
 20
118.802
 30
0.0
 40
0
 41
0
  0
VERTEX
  8
0
 10
13.3567
 20
122.573
 30
0.0
 40
0
 41
0
  0
VERTEX
  8
0
 10
15.2817
 20
119.238
 30
0.0
 40
0
 41
0
  0
VERTEX
  8
0
 10
8.75
 20
115.467
 30
0.0
 40
0
 41
0
  0
VERTEX
  8
0
 10
15
 20
104.642
 30
0.0
 40
0
 41
0
  0
VERTEX
  8
0
 10
28.65
 20
104.642
 30
0.0
 40
0
 41
0
  0
VERTEX
  8
0
 10
28.65
 20
112.184
 30
0.0
 40
0
 41
0
  0
VERTEX
  8
0
 10
32.5
 20
112.184
 30
0.0
 40
0
 41
0
  0
VERTEX
  8
0
 10
32.5
 20
104.642
 30
0.0
 40
0
 41
0
  0
VERTEX
  8
0
 10
45
 20
104.642
 30
0.0
 40
0
 41
0
  0
VERTEX
  8
0
 10
51.825
 20
116.463
 30
0.0
 40
0
 41
0
  0
VERTEX
  8
0
 10
45.2933
 20
120.234
 30
0.0
 40
0
 41
0
  0
VERTEX
  8
0
 10
47.2183
 20
123.569
 30
0.0
 40
0
 41
0
  0
VERTEX
  8
0
 10
53.75
 20
119.797
 30
0.0
 40
0
 41
0
  0
VERTEX
  8
0
 10
60
 20
130.623
 30
0.0
 40
0
 41
0
  0
VERTEX
  8
0
 10
53.175
 20
142.444
 30
0.0
 40
0
 41
0
  0
VERTEX
  8
0
 10
46.6433
 20
138.673
 30
0.0
 40
0
 41
0
  0
VERTEX
  8
0
 10
44.7183
 20
142.007
 30
0.0
 40
0
 41
0
  0
SEQEND
 8
0
  0
POLYLINE
  8
0
 62
     0
 66
     1
 10
0
 20
0
 30
0.0
 70
     1
 40
0
 41
0
  0
VERTEX
  8
0
 10
15.2817
 20
67.2769
 30
0.0
 40
0
 41
0
  0
VERTEX
  8
0
 10
8.75
 20
63.5058
 30
0.0
 40
0
 41
0
  0
VERTEX
  8
0
 10
15
 20
52.6806
 30
0.0
 40
0
 41
0
  0
VERTEX
  8
0
 10
28.65
 20
52.6806
 30
0.0
 40
0
 41
0
  0
VERTEX
  8
0
 10
28.65
 20
60.2228
 30
0.0
 40
0
 41
0
  0
VERTEX
  8
0
 10
32.5
 20
60.2228
 30
0.0
 40
0
 41
0
  0
VERTEX
  8
0
 10
32.5
 20
52.6806
 30
0.0
 40
0
 41
0
  0
VERTEX
  8
0
 10
45
 20
52.6806
 30
0.0
 40
0
 41
0
  0
VERTEX
  8
0
 10
51.825
 20
64.5018
 30
0.0
 40
0
 41
0
  0
VERTEX
  8
0
 10
45.2933
 20
68.2728
 30
0.0
 40
0
 41
0
  0
VERTEX
  8
0
 10
47.2183
 20
71.6071
 30
0.0
 40
0
 41
0
  0
VERTEX
  8
0
 10
53.75
 20
67.836
 30
0.0
 40
0
 41
0
  0
VERTEX
  8
0
 10
60
 20
78.6612
 30
0.0
 40
0
 41
0
  0
VERTEX
  8
0
 10
53.175
 20
90.4825
 30
0.0
 40
0
 41
0
  0
VERTEX
  8
0
 10
46.6433
 20
86.7115
 30
0.0
 40
0
 41
0
  0
VERTEX
  8
0
 10
44.7183
 20
90.0457
 30
0.0
 40
0
 41
0
  0
VERTEX
  8
0
 10
51.25
 20
93.8167
 30
0.0
 40
0
 41
0
  0
VERTEX
  8
0
 10
45
 20
104.642
 30
0.0
 40
0
 41
0
  0
VERTEX
  8
0
 10
31.35
 20
104.642
 30
0.0
 40
0
 41
0
  0
VERTEX
  8
0
 10
31.35
 20
97.0999
 30
0.0
 40
0
 41
0
  0
VERTEX
  8
0
 10
27.5
 20
97.0999
 30
0.0
 40
0
 41
0
  0
VERTEX
  8
0
 10
27.5
 20
104.642
 30
0.0
 40
0
 41
0
  0
VERTEX
  8
0
 10
15
 20
104.642
 30
0.0
 40
0
 41
0
  0
VERTEX
  8
0
 10
8.17503
 20
92.8208
 30
0.0
 40
0
 41
0
  0
VERTEX
  8
0
 10
14.7067
 20
89.0497
 30
0.0
 40
0
 41
0
  0
VERTEX
  8
0
 10
12.7817
 20
85.7156
 30
0.0
 40
0
 41
0
  0
VERTEX
  8
0
 10
6.25
 20
89.4867
 30
0.0
 40
0
 41
0
  0
VERTEX
  8
0
 10
0
 20
78.6612
 30
0.0
 40
0
 41
0
  0
VERTEX
  8
0
 10
6.82497
 20
66.84
 30
0.0
 40
0
 41
0
  0
VERTEX
  8
0
 10
13.3567
 20
70.6111
 30
0.0
 40
0
 41
0
  0
VERTEX
  8
0
 10
15.2817
 20
67.2769
 30
0.0
 40
0
 41
0
  0
SEQEND
 8
0
  0
POLYLINE
  8
0
 62
     0
 66
     1
 10
0
 20
0
 30
0.0
 70
     1
 40
0
 41
0
  0
VERTEX
  8
0
 10
44.7183
 20
37.374
 30
0.0
 40
0
 41
0
  0
VERTEX
  8
0
 10
51.25
 20
41.1451
 30
0.0
 40
0
 41
0
  0
VERTEX
  8
0
 10
45
 20
51.9704
 30
0.0
 40
0
 41
0
  0
VERTEX
  8
0
 10
31.35
 20
51.9704
 30
0.0
 40
0
 41
0
  0
VERTEX
  8
0
 10
31.35
 20
44.4282
 30
0.0
 40
0
 41
0
  0
VERTEX
  8
0
 10
27.5
 20
44.4282
 30
0.0
 40
0
 41
0
  0
VERTEX
  8
0
 10
27.5
 20
51.9704
 30
0.0
 40
0
 41
0
  0
VERTEX
  8
0
 10
15
 20
51.9704
 30
0.0
 40
0
 41
0
  0
VERTEX
  8
0
 10
8.17503
 20
40.1492
 30
0.0
 40
0
 41
0
  0
VERTEX
  8
0
 10
14.7067
 20
36.3781
 30
0.0
 40
0
 41
0
  0
VERTEX
  8
0
 10
12.7817
 20
33.0439
 30
0.0
 40
0
 41
0
  0
VERTEX
  8
0
 10
6.25
 20
36.815
 30
0.0
 40
0
 41
0
  0
VERTEX
  8
0
 10
0
 20
25.9896
 30
0.0
 40
0
 41
0
  0
VERTEX
  8
0
 10
6.82497
 20
14.1683
 30
0.0
 40
0
 41
0
  0
VERTEX
  8
0
 10
13.3567
 20
17.9394
 30
0.0
 40
0
 41
0
  0
VERTEX
  8
0
 10
15.2817
 20
14.6053
 30
0.0
 40
0
 41
0
  0
VERTEX
  8
0
 10
8.75
 20
10.8342
 30
0.0
 40
0
 41
0
  0
VERTEX
  8
0
 10
15
 20
0.00884332
 30
0.0
 40
0
 41
0
  0
VERTEX
  8
0
 10
28.65
 20
0.00884332
 30
0.0
 40
0
 41
0
  0
VERTEX
  8
0
 10
28.65
 20
7.551
 30
0.0
 40
0
 41
0
  0
VERTEX
  8
0
 10
32.5
 20
7.551
 30
0.0
 40
0
 41
0
  0
VERTEX
  8
0
 10
32.5
 20
0.00884332
 30
0.0
 40
0
 41
0
  0
VERTEX
  8
0
 10
45
 20
0.00884332
 30
0.0
 40
0
 41
0
  0
VERTEX
  8
0
 10
51.825
 20
11.8301
 30
0.0
 40
0
 41
0
  0
VERTEX
  8
0
 10
45.2933
 20
15.6013
 30
0.0
 40
0
 41
0
  0
VERTEX
  8
0
 10
47.2183
 20
18.9354
 30
0.0
 40
0
 41
0
  0
VERTEX
  8
0
 10
53.75
 20
15.1643
 30
0.0
 40
0
 41
0
  0
VERTEX
  8
0
 10
60
 20
25.9896
 30
0.0
 40
0
 41
0
  0
VERTEX
  8
0
 10
53.175
 20
37.8108
 30
0.0
 40
0
 41
0
  0
VERTEX
  8
0
 10
46.6433
 20
34.0397
 30
0.0
 40
0
 41
0
  0
VERTEX
  8
0
 10
44.7183
 20
37.374
 30
0.0
 40
0
 41
0
  0
SEQEND
 8
0
  0
ENDSEC
  0
EOF
